<svg width="36" height="21" viewBox="0 0 36 21" fill="none" xmlns="http://www.w3.org/2000/svg">
<g opacity="0.34">
<path fill-rule="evenodd" clip-rule="evenodd" d="M34.982 5.51856C35.4756 5.51856 35.8757 5.92233 35.8757 6.4204C35.8757 11.9255 32.6881 16.6934 28.0778 18.9431L28.7926 19.2447C29.248 19.4368 29.4628 19.965 29.2725 20.4246C29.1292 20.7704 28.7972 20.9788 28.4477 20.9788C28.3328 20.9788 28.216 20.9564 28.1034 20.9089L25.6192 19.8608C24.496 20.1605 23.3173 20.3209 22.102 20.3209H13.7738C12.7481 20.3209 11.7486 20.2062 10.7863 19.9905L8.60975 20.9089C8.49715 20.9563 8.38034 20.9788 8.26545 20.9788C7.91592 20.9788 7.584 20.7705 7.44064 20.4246C7.2503 19.965 7.46515 19.4368 7.92051 19.2447L8.19562 19.1286C3.37213 16.9638 0 12.0824 0 6.4204C0 5.92233 0.400085 5.51856 0.893617 5.51856H3.61609V0.926133C3.61609 0.428059 4.01617 0.024292 4.5097 0.024292H9.10545C9.59898 0.024292 9.99906 0.428059 9.99906 0.926133V3.51184C9.99906 4.00991 9.59898 4.41368 9.10545 4.41368C8.61191 4.41368 8.21183 4.00991 8.21183 3.51184V1.82797H5.40332V5.51856H34.982ZM13.774 18.5172H22.1021C28.4109 18.5172 33.5971 13.573 34.0558 7.32211H1.82048C2.27903 13.5729 7.4652 18.5172 13.774 18.5172Z" fill="black"/>
</g>
</svg>
