<svg width="42" height="26" viewBox="0 0 42 26" fill="none" xmlns="http://www.w3.org/2000/svg">
<g opacity="0.34">
<path fill-rule="evenodd" clip-rule="evenodd" d="M40.9545 7.82095H22.4952V4.79005H22.9403C23.4526 4.79005 23.8678 4.38059 23.8678 3.87548V0.915794C23.8678 0.410688 23.4526 0.0012207 22.9403 0.0012207H0.927445C0.41523 0.0012207 0 0.410688 0 0.915794V3.87548C0 4.38059 0.41523 4.79005 0.927445 4.79005H1.37262V24.3788C1.37262 24.8839 1.78785 25.2933 2.30006 25.2933H21.5677C22.0799 25.2933 22.4952 24.8839 22.4952 24.3788V12.6098H37.4009V24.3788C37.4009 24.8839 37.8162 25.2933 38.3284 25.2933C38.8406 25.2933 39.2558 24.8839 39.2558 24.3788V12.6098H40.9545C41.4667 12.6098 41.882 12.2003 41.882 11.6952V8.73552C41.882 8.23029 41.4669 7.82095 40.9545 7.82095ZM40.0269 10.7806H22.495V9.65009H40.0269V10.7806ZM1.85489 1.83037V2.96091H2.30006H21.5679H22.013V1.83037H1.85489ZM3.22763 4.79006H20.6404V8.73553V11.6952V23.4642H15.1706V17.0414C15.1706 16.5363 14.7554 16.1268 14.2432 16.1268H9.62501C9.11279 16.1268 8.69756 16.5363 8.69756 17.0414V23.4642H3.22763V4.79006ZM10.5523 23.4642H13.3156V17.956H10.5523V23.4642Z" fill="black"/>
<path fill-rule="evenodd" clip-rule="evenodd" d="M34.949 18.3983V16.6145C34.949 15.3894 33.9383 14.3928 32.6961 14.3928H27.4196C26.1773 14.3928 25.1667 15.3894 25.1667 16.6145V18.3983C24.3968 18.6746 23.8445 19.4014 23.8445 20.255V23.8856C23.8445 24.3907 24.2598 24.8001 24.772 24.8001H25.3034V24.9682C25.3034 25.4733 25.7186 25.8827 26.2309 25.8827C26.7431 25.8827 27.1583 25.4733 27.1583 24.9682V24.8001H32.9575V24.9682C32.9575 25.4733 33.3727 25.8827 33.8849 25.8827C34.3971 25.8827 34.8124 25.4733 34.8124 24.9682V24.8001H35.3438C35.856 24.8001 36.2713 24.3907 36.2713 23.8856V20.255C36.2711 19.4014 35.7189 18.6746 34.949 18.3983ZM25.6994 22.9709V20.2549C25.6994 20.1732 25.7669 20.1067 25.8497 20.1067H34.266C34.3488 20.1067 34.4162 20.1732 34.4162 20.2549V22.9709H25.6994ZM32.6961 16.222H27.4196C27.2002 16.222 27.0216 16.3981 27.0216 16.6145V18.2775H33.0941V16.6145C33.0941 16.3981 32.9155 16.222 32.6961 16.222Z" fill="black"/>
<path fill-rule="evenodd" clip-rule="evenodd" d="M27.0849 21.0323C26.8411 21.0323 26.6025 21.129 26.429 21.3002C26.2568 21.47 26.1574 21.7065 26.1574 21.9469C26.1574 22.1873 26.2568 22.4225 26.429 22.5937C26.6026 22.7635 26.8411 22.8615 27.0849 22.8615C27.33 22.8615 27.5683 22.7635 27.7406 22.5937C27.913 22.4238 28.0123 22.1873 28.0123 21.9469C28.0123 21.7052 27.913 21.47 27.7406 21.3002C27.5683 21.129 27.3299 21.0323 27.0849 21.0323Z" fill="black"/>
<path fill-rule="evenodd" clip-rule="evenodd" d="M33.0297 21.0323C32.7858 21.0323 32.5473 21.129 32.3738 21.3002C32.2016 21.47 32.1022 21.7052 32.1022 21.9469C32.1022 22.1873 32.2016 22.4225 32.3738 22.5937C32.5474 22.7635 32.7858 22.8615 33.0297 22.8615C33.2735 22.8615 33.5131 22.7635 33.6854 22.5937C33.8578 22.4225 33.9571 22.1873 33.9571 21.9469C33.9571 21.7052 33.8578 21.47 33.6854 21.3002C33.5131 21.129 33.2748 21.0323 33.0297 21.0323Z" fill="black"/>
<path fill-rule="evenodd" clip-rule="evenodd" d="M7.42668 7.46008C6.91447 7.46008 6.49924 7.86955 6.49924 8.37466V10.3034C6.49924 10.8085 6.91447 11.2179 7.42668 11.2179C7.93889 11.2179 8.35412 10.8085 8.35412 10.3034V8.37466C8.35412 7.86955 7.93889 7.46008 7.42668 7.46008V7.46008Z" fill="black"/>
<path fill-rule="evenodd" clip-rule="evenodd" d="M11.9338 11.2179C12.446 11.2179 12.8612 10.8085 12.8612 10.3034V8.37466C12.8612 7.86955 12.446 7.46008 11.9338 7.46008C11.4215 7.46008 11.0063 7.86955 11.0063 8.37466V10.3034C11.0063 10.8085 11.4215 11.2179 11.9338 11.2179Z" fill="black"/>
<path fill-rule="evenodd" clip-rule="evenodd" d="M16.4412 11.2179C16.9535 11.2179 17.3687 10.8085 17.3687 10.3034V8.37466C17.3687 7.86955 16.9535 7.46008 16.4412 7.46008C15.929 7.46008 15.5138 7.86955 15.5138 8.37466V10.3034C15.5138 10.8085 15.929 11.2179 16.4412 11.2179Z" fill="black"/>
</g>
</svg>
