<svg width="35" height="24" viewBox="0 0 35 24" fill="none" xmlns="http://www.w3.org/2000/svg">
<g opacity="0.34">
<path fill-rule="evenodd" clip-rule="evenodd" d="M33.9057 0.067749H0.976096C0.437012 0.067749 0 0.495113 0 1.02229V4.28125C0 4.80843 0.437012 5.2358 0.976096 5.2358C1.51518 5.2358 1.95219 4.80843 1.95219 4.28125V1.97684H25.7254V3.6942C25.7254 4.22139 26.1624 4.64875 26.7015 4.64875C27.2406 4.64875 27.6776 4.22139 27.6776 3.6942V1.97684H32.9296V11.0558H16.0175V7.82357C16.0175 7.29639 15.5804 6.86902 15.0414 6.86902C14.5023 6.86902 14.0653 7.29639 14.0653 7.82357V16.1971C14.0653 16.7243 14.5023 17.1517 15.0414 17.1517C15.5804 17.1517 16.0175 16.7243 16.0175 16.1971V12.9649H32.9296V22.0438H27.6776V20.3265C27.6776 19.7993 27.2406 19.3719 26.7015 19.3719C26.1624 19.3719 25.7254 19.7993 25.7254 20.3265V22.0438H1.95219V9.66816C1.95219 9.14098 1.51518 8.71361 0.976096 8.71361C0.437012 8.71361 0 9.14098 0 9.66816V22.9984C0 23.5256 0.437012 23.9529 0.976096 23.9529H33.9057C34.4447 23.9529 34.8818 23.5256 34.8818 22.9984V1.02229C34.8818 0.495113 34.4449 0.067749 33.9057 0.067749Z" fill="black"/>
</g>
</svg>
