<svg width="128" height="22" viewBox="0 0 128 22" fill="none" xmlns="http://www.w3.org/2000/svg">
<path fill-rule="evenodd" clip-rule="evenodd" d="M7.05612 13.6884C7.96812 13.6884 8.69712 13.4264 9.24312 12.9054C9.78912 12.3824 10.0621 11.6484 10.0621 10.7004C10.0621 9.75139 9.78912 9.01639 9.24312 8.49539C8.69712 7.97239 7.96812 7.71139 7.05612 7.71139H5.27412V13.6884H7.05612ZM1.02612 4.40039H7.23612C8.64012 4.40039 9.87912 4.65539 10.9531 5.16539C12.0271 5.67439 12.8611 6.40439 13.4551 7.35139C14.0491 8.29939 14.3461 9.41639 14.3461 10.7004C14.3461 11.9844 14.0491 13.1004 13.4551 14.0474C12.8611 14.9964 12.0271 15.7244 10.9531 16.2354C9.87912 16.7454 8.64012 17.0004 7.23612 17.0004H1.02612V4.40039Z" fill="#2A2A2A"/>
<mask id="mask0" mask-type="alpha" maskUnits="userSpaceOnUse" x="0" y="0" width="128" height="22">
<path fill-rule="evenodd" clip-rule="evenodd" d="M0 22H128V0H0V22Z" fill="white"/>
</mask>
<g mask="url(#mask0)">
<path fill-rule="evenodd" clip-rule="evenodd" d="M15.84 16.9999H19.908V7.15392H15.84V16.9999ZM16.101 5.77692C15.651 5.38692 15.426 4.89292 15.426 4.29192C15.426 3.69192 15.651 3.19692 16.101 2.80692C16.551 2.41692 17.142 2.22192 17.874 2.22192C18.618 2.22192 19.212 2.40792 19.656 2.77992C20.1 3.15192 20.322 3.63192 20.322 4.21992C20.322 4.84392 20.1 5.35692 19.656 5.75892C19.212 6.16092 18.618 6.36192 17.874 6.36192C17.142 6.36192 16.551 6.16692 16.101 5.77692Z" fill="#2A2A2A"/>
<path fill-rule="evenodd" clip-rule="evenodd" d="M28.2686 12.8506C28.5866 12.5566 28.7456 12.1756 28.7456 11.7076C28.7456 11.2406 28.5866 10.8626 28.2686 10.5746C27.9506 10.2866 27.5516 10.1416 27.0716 10.1416C26.5796 10.1416 26.1746 10.2866 25.8566 10.5746C25.5386 10.8626 25.3796 11.2406 25.3796 11.7076C25.3796 12.1756 25.5416 12.5566 25.8656 12.8506C26.1896 13.1456 26.5916 13.2916 27.0716 13.2916C27.5516 13.2916 27.9506 13.1456 28.2686 12.8506ZM32.7776 7.15463V15.0386C32.7776 16.9106 32.2586 18.3166 31.2206 19.2586C30.1826 20.2016 28.7036 20.6716 26.7836 20.6716C25.7996 20.6716 24.8816 20.5666 24.0296 20.3576C23.1776 20.1466 22.4516 19.8436 21.8516 19.4486L23.2196 16.6756C23.6036 16.9636 24.0896 17.1986 24.6776 17.3776C25.2656 17.5576 25.8296 17.6486 26.3696 17.6486C27.1856 17.6486 27.7796 17.4736 28.1516 17.1256C28.5236 16.7786 28.7096 16.2686 28.7096 15.5956V15.4156C28.0976 16.1126 27.1916 16.4596 25.9916 16.4596C25.1516 16.4596 24.3686 16.2646 23.6426 15.8746C22.9156 15.4856 22.3376 14.9266 21.9056 14.2016C21.4736 13.4746 21.2576 12.6436 21.2576 11.7076C21.2576 10.7726 21.4736 9.94463 21.9056 9.22363C22.3376 8.50363 22.9156 7.94963 23.6426 7.55863C24.3686 7.16863 25.1516 6.97363 25.9916 6.97363C27.3356 6.97363 28.3076 7.40663 28.9076 8.26963V7.15463H32.7776Z" fill="#2A2A2A"/>
<path fill-rule="evenodd" clip-rule="evenodd" d="M34.6491 16.9999H38.7171V7.15392H34.6491V16.9999ZM34.9111 5.77692C34.4601 5.38692 34.2351 4.89292 34.2351 4.29192C34.2351 3.69192 34.4601 3.19692 34.9111 2.80692C35.3601 2.41692 35.9521 2.22192 36.6841 2.22192C37.4271 2.22192 38.0211 2.40792 38.4651 2.77992C38.9091 3.15192 39.1311 3.63192 39.1311 4.21992C39.1311 4.84392 38.9091 5.35692 38.4651 5.75892C38.0211 6.16092 37.4271 6.36192 36.6841 6.36192C35.9521 6.36192 35.3601 6.16692 34.9111 5.77692Z" fill="#2A2A2A"/>
<path fill-rule="evenodd" clip-rule="evenodd" d="M47.8437 16.6582C47.2317 17.0062 46.3977 17.1792 45.3417 17.1792C43.9617 17.1792 42.8997 16.8462 42.1557 16.1802C41.4107 15.5142 41.0397 14.5152 41.0397 13.1832V10.6642H39.6897V7.69419H41.0397V4.94019H45.1077V7.69419H47.1227V10.6642H45.1077V13.1482C45.1077 13.4482 45.1857 13.6812 45.3417 13.8492C45.4967 14.0182 45.7007 14.1012 45.9527 14.1012C46.3007 14.1012 46.6077 14.0122 46.8707 13.8322L47.8437 16.6582Z" fill="#2A2A2A"/>
<path fill-rule="evenodd" clip-rule="evenodd" d="M54.1073 14.4981C54.3353 14.3421 54.5033 14.1081 54.6113 13.7961V13.1121H53.6033C52.7753 13.1121 52.3613 13.3891 52.3613 13.9401C52.3613 14.1681 52.4473 14.3571 52.6223 14.5071C52.7953 14.6571 53.0333 14.7321 53.3333 14.7321C53.6213 14.7321 53.8783 14.6541 54.1073 14.4981ZM57.3103 8.13512C58.2223 8.90912 58.6793 10.1001 58.6793 11.7081V17.0001H54.8983V15.7041C54.4313 16.6881 53.5013 17.1801 52.1093 17.1801C51.3283 17.1801 50.6663 17.0451 50.1203 16.7751C49.5743 16.5051 49.1603 16.1391 48.8783 15.6771C48.5953 15.2151 48.4553 14.6961 48.4553 14.1201C48.4553 13.1481 48.8263 12.4101 49.5703 11.9061C50.3143 11.4021 51.4433 11.1501 52.9553 11.1501H54.5923C54.4613 10.3821 53.8423 9.99812 52.7393 9.99812C52.2953 9.99812 51.8443 10.0671 51.3883 10.2051C50.9323 10.3431 50.5433 10.5321 50.2183 10.7721L48.9223 8.09012C49.4863 7.74212 50.1683 7.46912 50.9653 7.27112C51.7633 7.07312 52.5583 6.97412 53.3513 6.97412C55.0793 6.97412 56.3983 7.36112 57.3103 8.13512Z" fill="#2A2A2A"/>
<path fill-rule="evenodd" clip-rule="evenodd" d="M60.5161 17H64.5831V3.64404H60.5161V17Z" fill="#2A2A2A"/>
<path fill-rule="evenodd" clip-rule="evenodd" d="M77.0566 13.7959V16.9999H66.5796V4.3999H76.8226V7.6039H70.7566V9.0799H76.0836V12.1399H70.7566V13.7959H77.0566Z" fill="#2A2A2A"/>
<path fill-rule="evenodd" clip-rule="evenodd" d="M80.0088 16.9101C79.1928 16.7301 78.5328 16.4961 78.0298 16.2081L79.1448 13.5261C79.6008 13.8021 80.1408 14.0181 80.7648 14.1741C81.3888 14.3301 81.9938 14.4081 82.5818 14.4081C83.0508 14.4081 83.3768 14.3691 83.5648 14.2911C83.7498 14.2131 83.8428 14.0961 83.8428 13.9401C83.8428 13.7841 83.7258 13.6761 83.4918 13.6161C83.2578 13.5561 82.8768 13.4961 82.3488 13.4351C81.5448 13.3401 80.8618 13.2171 80.2968 13.0671C79.7328 12.9171 79.2378 12.6261 78.8118 12.1941C78.3858 11.7621 78.1728 11.1441 78.1728 10.3401C78.1728 9.70414 78.3648 9.13414 78.7478 8.63014C79.1328 8.12614 79.7048 7.72314 80.4678 7.42414C81.2298 7.12414 82.1448 6.97314 83.2128 6.97314C83.9568 6.97314 84.6858 7.04314 85.4008 7.18114C86.1128 7.31914 86.7228 7.52014 87.2268 7.78414L86.1118 10.4661C85.2458 9.98614 84.2988 9.74614 83.2668 9.74614C82.3788 9.74614 81.9348 9.90214 81.9348 10.2141C81.9348 10.3701 82.0548 10.4811 82.2948 10.5471C82.5348 10.6131 82.9118 10.6761 83.4288 10.7361C84.2328 10.8321 84.9138 10.9581 85.4718 11.1141C86.0298 11.2701 86.5218 11.5641 86.9468 11.9961C87.3728 12.4281 87.5868 13.0461 87.5868 13.8491C87.5868 14.4621 87.3948 15.0191 87.0108 15.5241C86.6268 16.0281 86.0508 16.4311 85.2828 16.7301C84.5148 17.0301 83.5838 17.1801 82.4918 17.1801C81.6528 17.1801 80.8238 17.0901 80.0088 16.9101Z" fill="#2A2A2A"/>
<path fill-rule="evenodd" clip-rule="evenodd" d="M96.1367 16.6582C95.5247 17.0062 94.6907 17.1792 93.6347 17.1792C92.2537 17.1792 91.1927 16.8462 90.4487 16.1802C89.7037 15.5142 89.3317 14.5152 89.3317 13.1832V10.6642H87.9827V7.69419H89.3317V4.94019H93.4007V7.69419H95.4157V10.6642H93.4007V13.1482C93.4007 13.4482 93.4787 13.6812 93.6347 13.8492C93.7897 14.0182 93.9937 14.1012 94.2457 14.1012C94.5937 14.1012 94.9007 14.0122 95.1637 13.8322L96.1367 16.6582Z" fill="#2A2A2A"/>
<path fill-rule="evenodd" clip-rule="evenodd" d="M102.4 14.4981C102.629 14.3421 102.796 14.1081 102.904 13.7961V13.1121H101.896C101.068 13.1121 100.654 13.3891 100.654 13.9401C100.654 14.1681 100.741 14.3571 100.916 14.5071C101.089 14.6571 101.326 14.7321 101.627 14.7321C101.914 14.7321 102.171 14.6541 102.4 14.4981ZM105.604 8.13512C106.515 8.90912 106.972 10.1001 106.972 11.7081V17.0001H103.192V15.7041C102.724 16.6881 101.795 17.1801 100.402 17.1801C99.6223 17.1801 98.9593 17.0451 98.4143 16.7751C97.8673 16.5051 97.4533 16.1391 97.1713 15.6771C96.8883 15.2151 96.7483 14.6961 96.7483 14.1201C96.7483 13.1481 97.1203 12.4101 97.8643 11.9061C98.6083 11.4021 99.7363 11.1501 101.248 11.1501H102.886C102.754 10.3821 102.136 9.99812 101.033 9.99812C100.588 9.99812 100.138 10.0671 99.6823 10.2051C99.2263 10.3431 98.8363 10.5321 98.5123 10.7721L97.2163 8.09012C97.7803 7.74212 98.4613 7.46912 99.2593 7.27112C100.057 7.07312 100.852 6.97412 101.644 6.97412C103.373 6.97412 104.692 7.36112 105.604 8.13512Z" fill="#2A2A2A"/>
<path fill-rule="evenodd" clip-rule="evenodd" d="M116.062 16.6582C115.45 17.0062 114.616 17.1792 113.56 17.1792C112.179 17.1792 111.118 16.8462 110.374 16.1802C109.629 15.5142 109.257 14.5152 109.257 13.1832V10.6642H107.908V7.69419H109.257V4.94019H113.326V7.69419H115.341V10.6642H113.326V13.1482C113.326 13.4482 113.404 13.6812 113.56 13.8492C113.715 14.0182 113.919 14.1012 114.171 14.1012C114.519 14.1012 114.826 14.0122 115.089 13.8322L116.062 16.6582Z" fill="#2A2A2A"/>
<path fill-rule="evenodd" clip-rule="evenodd" d="M120.958 10.0879C120.682 10.3169 120.502 10.6399 120.418 11.0599H123.586C123.502 10.6519 123.322 10.3309 123.046 10.0969C122.77 9.86288 122.422 9.74588 122.002 9.74588C121.582 9.74588 121.234 9.85988 120.958 10.0879ZM127.33 13.0229H120.49C120.634 13.3949 120.873 13.6789 121.21 13.8769C121.545 14.0749 121.966 14.1739 122.47 14.1739C122.902 14.1739 123.265 14.1199 123.559 14.0119C123.853 13.9039 124.174 13.7179 124.521 13.4539L126.646 15.5959C125.686 16.6519 124.252 17.1799 122.344 17.1799C121.156 17.1799 120.111 16.9609 119.212 16.5239C118.312 16.0849 117.615 15.4769 117.124 14.6959C116.632 13.9159 116.386 13.0399 116.386 12.0679C116.386 11.0839 116.629 10.2049 117.115 9.43088C117.601 8.65688 118.267 8.05388 119.113 7.62188C119.959 7.19088 120.91 6.97388 121.966 6.97388C122.962 6.97388 123.871 7.17188 124.693 7.56788C125.515 7.96388 126.169 8.54588 126.654 9.31488C127.141 10.0819 127.384 10.9999 127.384 12.0679C127.384 12.1279 127.365 12.4459 127.33 13.0229Z" fill="#2A2A2A"/>
</g>
<mask id="mask1" mask-type="alpha" maskUnits="userSpaceOnUse" x="34" y="20" width="94" height="2">
<path fill-rule="evenodd" clip-rule="evenodd" d="M35 20C34.447 20 34 20.447 34 21C34 21.552 34.447 22 35 22H127C127.553 22 128 21.552 128 21C128 20.447 127.553 20 127 20H35Z" fill="white"/>
</mask>
<g mask="url(#mask1)">
<path fill-rule="evenodd" clip-rule="evenodd" d="M29 27H133V15H29V27Z" fill="#00B4A2"/>
</g>
</svg>
